<svg xmlns="http://www.w3.org/2000/svg" viewBox="0 0 112 152" width="112" height="152" role="img" aria-label="Flor: orquídea">
<defs>
<linearGradient id="mjFace" x1="0" y1="0" x2="0.35" y2="1">
  <stop offset="0" stop-color="#FEFCF3"/><stop offset="1" stop-color="#EBE0C4"/>
</linearGradient>
<linearGradient id="mjSide" x1="0" y1="0" x2="0.7" y2="1">
  <stop offset="0" stop-color="#E4D6AE"/><stop offset="0.55" stop-color="#C4AF7E"/><stop offset="1" stop-color="#9F8A5B"/>
</linearGradient>
<linearGradient id="mjBack" x1="0" y1="0" x2="0.4" y2="1">
  <stop offset="0" stop-color="#3E7F63"/><stop offset="1" stop-color="#1E4D3B"/>
</linearGradient>
<radialGradient id="mjGloss" cx="0.3" cy="0.18" r="0.9">
  <stop offset="0" stop-color="#ffffff" stop-opacity="0.85"/><stop offset="0.6" stop-color="#ffffff" stop-opacity="0"/>
</radialGradient>
</defs>
<path d="M10,0 L90,0 A10,10 0 0 1 100,10 L112,22 L112,142 A10,10 0 0 1 102,152 L22,152 A10,10 0 0 1 12,142 L0,130 L0,10 A10,10 0 0 1 10,0 Z" fill="url(#mjSide)" stroke="#6B5C3C" stroke-width="1.6" stroke-linejoin="round"/>
<path d="M98,138 L109,149" stroke="#6B5C3C" stroke-width="1.1" stroke-opacity="0.45"/>
<rect x="0.8" y="0.8" width="98.4" height="138.4" rx="9.2" fill="url(#mjFace)" stroke="#6B5C3C" stroke-width="1.6"/>
<rect x="6" y="7" width="88" height="126" rx="7" fill="none" stroke="#D9CCA8" stroke-width="1.6"/>
<rect x="0.8" y="0.8" width="98.4" height="138.4" rx="9.2" fill="url(#mjGloss)"/>
<!-- Solo esto se lee al reconstruir el sprite: -->
<g id="face" transform="translate(9,11)"><ellipse cx="38" cy="26" rx="10" ry="15" fill="#B00A50"/><ellipse cx="17" cy="40" rx="15" ry="9.5" fill="#B00A50" transform="rotate(-32 17 40)"/><ellipse cx="59" cy="40" rx="15" ry="9.5" fill="#B00A50" transform="rotate(32 59 40)"/><ellipse cx="20" cy="62" rx="14" ry="11" fill="#B00A50" transform="rotate(-18 20 62)"/><ellipse cx="56" cy="62" rx="14" ry="11" fill="#B00A50" transform="rotate(18 56 62)"/><path d="M38,78 C26,78 20,69 24,60 C29,51 47,51 52,60 C56,69 50,78 38,78 Z" fill="#7A0034"/><path d="M30,57 C33,53 43,53 46,57" fill="none" stroke="#FBEFE6" stroke-width="2.6" stroke-linecap="round"/><path d="M38,58 C35,64 35,70 38,75 C41,70 41,64 38,58 Z" fill="#FBEFE6"/><path d="M31,64 L28,70 M45,64 L48,70" stroke="#FBEFE6" stroke-width="1.8" stroke-linecap="round"/><path d="M38,76 C33,86 34,94 38,100 C42,94 43,86 38,76 Z" fill="#0A7A32"/><g transform="translate(68,104) skewX(-12) translate(-68,-104)"><path d="M558.00 548.00H610.00L609.00 741.00H45.00V708.00L140.00 699.00C141.00 597.00 141.00 496.00 141.00 394.00V346.00C141.00 243.00 141.00 141.00 140.00 42.00L45.00 33.00V0.00H395.00V33.00L285.00 43.00C284.00 144.00 284.00 247.00 284.00 359.00H436.00L449.00 252.00H494.00V500.00H449.00L435.00 395.00H284.00C284.00 502.00 284.00 604.00 285.00 703.00H518.00Z" fill="#3A3A38" transform="translate(59.48,113.63) scale(0.03,-0.03)"/></g></g>
</svg>