<svg xmlns="http://www.w3.org/2000/svg" viewBox="0 0 112 152" width="112" height="152" role="img" aria-label="Círculos 8">
<defs>
<linearGradient id="mjFace" x1="0" y1="0" x2="0.35" y2="1">
  <stop offset="0" stop-color="#FEFCF3"/><stop offset="1" stop-color="#EBE0C4"/>
</linearGradient>
<linearGradient id="mjSide" x1="0" y1="0" x2="0.7" y2="1">
  <stop offset="0" stop-color="#E4D6AE"/><stop offset="0.55" stop-color="#C4AF7E"/><stop offset="1" stop-color="#9F8A5B"/>
</linearGradient>
<linearGradient id="mjBack" x1="0" y1="0" x2="0.4" y2="1">
  <stop offset="0" stop-color="#3E7F63"/><stop offset="1" stop-color="#1E4D3B"/>
</linearGradient>
<radialGradient id="mjGloss" cx="0.3" cy="0.18" r="0.9">
  <stop offset="0" stop-color="#ffffff" stop-opacity="0.85"/><stop offset="0.6" stop-color="#ffffff" stop-opacity="0"/>
</radialGradient>
</defs>
<path d="M10,0 L90,0 A10,10 0 0 1 100,10 L112,22 L112,142 A10,10 0 0 1 102,152 L22,152 A10,10 0 0 1 12,142 L0,130 L0,10 A10,10 0 0 1 10,0 Z" fill="url(#mjSide)" stroke="#6B5C3C" stroke-width="1.6" stroke-linejoin="round"/>
<path d="M98,138 L109,149" stroke="#6B5C3C" stroke-width="1.1" stroke-opacity="0.45"/>
<rect x="0.8" y="0.8" width="98.4" height="138.4" rx="9.2" fill="url(#mjFace)" stroke="#6B5C3C" stroke-width="1.6"/>
<rect x="6" y="7" width="88" height="126" rx="7" fill="none" stroke="#D9CCA8" stroke-width="1.6"/>
<rect x="0.8" y="0.8" width="98.4" height="138.4" rx="9.2" fill="url(#mjGloss)"/>
<!-- Solo esto se lee al reconstruir el sprite: -->
<g id="face" transform="translate(9,11)"><circle cx="26" cy="20" r="12" fill="#0C1A5E"/><circle cx="26" cy="20" r="9.6" fill="none" stroke="#6B90E0" stroke-width="1.8"/><path d="M0,0 Q3.74,-2.88 7.2,0 Q3.74,2.88 0,0" fill="none" stroke="#6B90E0" stroke-width="1.38" stroke-linejoin="round" transform="translate(26,20) rotate(0)"/><path d="M0,0 Q3.74,-2.88 7.2,0 Q3.74,2.88 0,0" fill="none" stroke="#6B90E0" stroke-width="1.38" stroke-linejoin="round" transform="translate(26,20) rotate(60)"/><path d="M0,0 Q3.74,-2.88 7.2,0 Q3.74,2.88 0,0" fill="none" stroke="#6B90E0" stroke-width="1.38" stroke-linejoin="round" transform="translate(26,20) rotate(120)"/><path d="M0,0 Q3.74,-2.88 7.2,0 Q3.74,2.88 0,0" fill="none" stroke="#6B90E0" stroke-width="1.38" stroke-linejoin="round" transform="translate(26,20) rotate(180)"/><path d="M0,0 Q3.74,-2.88 7.2,0 Q3.74,2.88 0,0" fill="none" stroke="#6B90E0" stroke-width="1.38" stroke-linejoin="round" transform="translate(26,20) rotate(240)"/><path d="M0,0 Q3.74,-2.88 7.2,0 Q3.74,2.88 0,0" fill="none" stroke="#6B90E0" stroke-width="1.38" stroke-linejoin="round" transform="translate(26,20) rotate(300)"/><circle cx="26" cy="20" r="1.56" fill="#6B90E0"/><circle cx="26" cy="46" r="12" fill="#0C1A5E"/><circle cx="26" cy="46" r="9.6" fill="none" stroke="#6B90E0" stroke-width="1.8"/><path d="M0,0 Q3.74,-2.88 7.2,0 Q3.74,2.88 0,0" fill="none" stroke="#6B90E0" stroke-width="1.38" stroke-linejoin="round" transform="translate(26,46) rotate(0)"/><path d="M0,0 Q3.74,-2.88 7.2,0 Q3.74,2.88 0,0" fill="none" stroke="#6B90E0" stroke-width="1.38" stroke-linejoin="round" transform="translate(26,46) rotate(60)"/><path d="M0,0 Q3.74,-2.88 7.2,0 Q3.74,2.88 0,0" fill="none" stroke="#6B90E0" stroke-width="1.38" stroke-linejoin="round" transform="translate(26,46) rotate(120)"/><path d="M0,0 Q3.74,-2.88 7.2,0 Q3.74,2.88 0,0" fill="none" stroke="#6B90E0" stroke-width="1.38" stroke-linejoin="round" transform="translate(26,46) rotate(180)"/><path d="M0,0 Q3.74,-2.88 7.2,0 Q3.74,2.88 0,0" fill="none" stroke="#6B90E0" stroke-width="1.38" stroke-linejoin="round" transform="translate(26,46) rotate(240)"/><path d="M0,0 Q3.74,-2.88 7.2,0 Q3.74,2.88 0,0" fill="none" stroke="#6B90E0" stroke-width="1.38" stroke-linejoin="round" transform="translate(26,46) rotate(300)"/><circle cx="26" cy="46" r="1.56" fill="#6B90E0"/><circle cx="26" cy="72" r="12" fill="#0C1A5E"/><circle cx="26" cy="72" r="9.6" fill="none" stroke="#6B90E0" stroke-width="1.8"/><path d="M0,0 Q3.74,-2.88 7.2,0 Q3.74,2.88 0,0" fill="none" stroke="#6B90E0" stroke-width="1.38" stroke-linejoin="round" transform="translate(26,72) rotate(0)"/><path d="M0,0 Q3.74,-2.88 7.2,0 Q3.74,2.88 0,0" fill="none" stroke="#6B90E0" stroke-width="1.38" stroke-linejoin="round" transform="translate(26,72) rotate(60)"/><path d="M0,0 Q3.74,-2.88 7.2,0 Q3.74,2.88 0,0" fill="none" stroke="#6B90E0" stroke-width="1.38" stroke-linejoin="round" transform="translate(26,72) rotate(120)"/><path d="M0,0 Q3.74,-2.88 7.2,0 Q3.74,2.88 0,0" fill="none" stroke="#6B90E0" stroke-width="1.38" stroke-linejoin="round" transform="translate(26,72) rotate(180)"/><path d="M0,0 Q3.74,-2.88 7.2,0 Q3.74,2.88 0,0" fill="none" stroke="#6B90E0" stroke-width="1.38" stroke-linejoin="round" transform="translate(26,72) rotate(240)"/><path d="M0,0 Q3.74,-2.88 7.2,0 Q3.74,2.88 0,0" fill="none" stroke="#6B90E0" stroke-width="1.38" stroke-linejoin="round" transform="translate(26,72) rotate(300)"/><circle cx="26" cy="72" r="1.56" fill="#6B90E0"/><circle cx="26" cy="98" r="12" fill="#0C1A5E"/><circle cx="26" cy="98" r="9.6" fill="none" stroke="#6B90E0" stroke-width="1.8"/><path d="M0,0 Q3.74,-2.88 7.2,0 Q3.74,2.88 0,0" fill="none" stroke="#6B90E0" stroke-width="1.38" stroke-linejoin="round" transform="translate(26,98) rotate(0)"/><path d="M0,0 Q3.74,-2.88 7.2,0 Q3.74,2.88 0,0" fill="none" stroke="#6B90E0" stroke-width="1.38" stroke-linejoin="round" transform="translate(26,98) rotate(60)"/><path d="M0,0 Q3.74,-2.88 7.2,0 Q3.74,2.88 0,0" fill="none" stroke="#6B90E0" stroke-width="1.38" stroke-linejoin="round" transform="translate(26,98) rotate(120)"/><path d="M0,0 Q3.74,-2.88 7.2,0 Q3.74,2.88 0,0" fill="none" stroke="#6B90E0" stroke-width="1.38" stroke-linejoin="round" transform="translate(26,98) rotate(180)"/><path d="M0,0 Q3.74,-2.88 7.2,0 Q3.74,2.88 0,0" fill="none" stroke="#6B90E0" stroke-width="1.38" stroke-linejoin="round" transform="translate(26,98) rotate(240)"/><path d="M0,0 Q3.74,-2.88 7.2,0 Q3.74,2.88 0,0" fill="none" stroke="#6B90E0" stroke-width="1.38" stroke-linejoin="round" transform="translate(26,98) rotate(300)"/><circle cx="26" cy="98" r="1.56" fill="#6B90E0"/><circle cx="56" cy="20" r="12" fill="#6E1210"/><circle cx="56" cy="20" r="9.6" fill="none" stroke="#EE6E6A" stroke-width="1.8"/><path d="M0,0 Q3.74,-2.88 7.2,0 Q3.74,2.88 0,0" fill="none" stroke="#EE6E6A" stroke-width="1.38" stroke-linejoin="round" transform="translate(56,20) rotate(0)"/><path d="M0,0 Q3.74,-2.88 7.2,0 Q3.74,2.88 0,0" fill="none" stroke="#EE6E6A" stroke-width="1.38" stroke-linejoin="round" transform="translate(56,20) rotate(60)"/><path d="M0,0 Q3.74,-2.88 7.2,0 Q3.74,2.88 0,0" fill="none" stroke="#EE6E6A" stroke-width="1.38" stroke-linejoin="round" transform="translate(56,20) rotate(120)"/><path d="M0,0 Q3.74,-2.88 7.2,0 Q3.74,2.88 0,0" fill="none" stroke="#EE6E6A" stroke-width="1.38" stroke-linejoin="round" transform="translate(56,20) rotate(180)"/><path d="M0,0 Q3.74,-2.88 7.2,0 Q3.74,2.88 0,0" fill="none" stroke="#EE6E6A" stroke-width="1.38" stroke-linejoin="round" transform="translate(56,20) rotate(240)"/><path d="M0,0 Q3.74,-2.88 7.2,0 Q3.74,2.88 0,0" fill="none" stroke="#EE6E6A" stroke-width="1.38" stroke-linejoin="round" transform="translate(56,20) rotate(300)"/><circle cx="56" cy="20" r="1.56" fill="#EE6E6A"/><circle cx="56" cy="46" r="12" fill="#6E1210"/><circle cx="56" cy="46" r="9.6" fill="none" stroke="#EE6E6A" stroke-width="1.8"/><path d="M0,0 Q3.74,-2.88 7.2,0 Q3.74,2.88 0,0" fill="none" stroke="#EE6E6A" stroke-width="1.38" stroke-linejoin="round" transform="translate(56,46) rotate(0)"/><path d="M0,0 Q3.74,-2.88 7.2,0 Q3.74,2.88 0,0" fill="none" stroke="#EE6E6A" stroke-width="1.38" stroke-linejoin="round" transform="translate(56,46) rotate(60)"/><path d="M0,0 Q3.74,-2.88 7.2,0 Q3.74,2.88 0,0" fill="none" stroke="#EE6E6A" stroke-width="1.38" stroke-linejoin="round" transform="translate(56,46) rotate(120)"/><path d="M0,0 Q3.74,-2.88 7.2,0 Q3.74,2.88 0,0" fill="none" stroke="#EE6E6A" stroke-width="1.38" stroke-linejoin="round" transform="translate(56,46) rotate(180)"/><path d="M0,0 Q3.74,-2.88 7.2,0 Q3.74,2.88 0,0" fill="none" stroke="#EE6E6A" stroke-width="1.38" stroke-linejoin="round" transform="translate(56,46) rotate(240)"/><path d="M0,0 Q3.74,-2.88 7.2,0 Q3.74,2.88 0,0" fill="none" stroke="#EE6E6A" stroke-width="1.38" stroke-linejoin="round" transform="translate(56,46) rotate(300)"/><circle cx="56" cy="46" r="1.56" fill="#EE6E6A"/><circle cx="56" cy="72" r="12" fill="#6E1210"/><circle cx="56" cy="72" r="9.6" fill="none" stroke="#EE6E6A" stroke-width="1.8"/><path d="M0,0 Q3.74,-2.88 7.2,0 Q3.74,2.88 0,0" fill="none" stroke="#EE6E6A" stroke-width="1.38" stroke-linejoin="round" transform="translate(56,72) rotate(0)"/><path d="M0,0 Q3.74,-2.88 7.2,0 Q3.74,2.88 0,0" fill="none" stroke="#EE6E6A" stroke-width="1.38" stroke-linejoin="round" transform="translate(56,72) rotate(60)"/><path d="M0,0 Q3.74,-2.88 7.2,0 Q3.74,2.88 0,0" fill="none" stroke="#EE6E6A" stroke-width="1.38" stroke-linejoin="round" transform="translate(56,72) rotate(120)"/><path d="M0,0 Q3.74,-2.88 7.2,0 Q3.74,2.88 0,0" fill="none" stroke="#EE6E6A" stroke-width="1.38" stroke-linejoin="round" transform="translate(56,72) rotate(180)"/><path d="M0,0 Q3.74,-2.88 7.2,0 Q3.74,2.88 0,0" fill="none" stroke="#EE6E6A" stroke-width="1.38" stroke-linejoin="round" transform="translate(56,72) rotate(240)"/><path d="M0,0 Q3.74,-2.88 7.2,0 Q3.74,2.88 0,0" fill="none" stroke="#EE6E6A" stroke-width="1.38" stroke-linejoin="round" transform="translate(56,72) rotate(300)"/><circle cx="56" cy="72" r="1.56" fill="#EE6E6A"/><circle cx="56" cy="98" r="12" fill="#6E1210"/><circle cx="56" cy="98" r="9.6" fill="none" stroke="#EE6E6A" stroke-width="1.8"/><path d="M0,0 Q3.74,-2.88 7.2,0 Q3.74,2.88 0,0" fill="none" stroke="#EE6E6A" stroke-width="1.38" stroke-linejoin="round" transform="translate(56,98) rotate(0)"/><path d="M0,0 Q3.74,-2.88 7.2,0 Q3.74,2.88 0,0" fill="none" stroke="#EE6E6A" stroke-width="1.38" stroke-linejoin="round" transform="translate(56,98) rotate(60)"/><path d="M0,0 Q3.74,-2.88 7.2,0 Q3.74,2.88 0,0" fill="none" stroke="#EE6E6A" stroke-width="1.38" stroke-linejoin="round" transform="translate(56,98) rotate(120)"/><path d="M0,0 Q3.74,-2.88 7.2,0 Q3.74,2.88 0,0" fill="none" stroke="#EE6E6A" stroke-width="1.38" stroke-linejoin="round" transform="translate(56,98) rotate(180)"/><path d="M0,0 Q3.74,-2.88 7.2,0 Q3.74,2.88 0,0" fill="none" stroke="#EE6E6A" stroke-width="1.38" stroke-linejoin="round" transform="translate(56,98) rotate(240)"/><path d="M0,0 Q3.74,-2.88 7.2,0 Q3.74,2.88 0,0" fill="none" stroke="#EE6E6A" stroke-width="1.38" stroke-linejoin="round" transform="translate(56,98) rotate(300)"/><circle cx="56" cy="98" r="1.56" fill="#EE6E6A"/></g>
</svg>